<svg width="24" height="24" viewBox="0 0 24 24" fill="none" xmlns="http://www.w3.org/2000/svg">
<path d="M12 1.99952C10.6994 1.95229 9.40265 2.16865 8.18781 2.63556C6.97297 3.10248 5.86513 3.81031 4.93095 4.71647C3.99676 5.62264 3.25552 6.70841 2.75183 7.90846C2.24814 9.10852 1.9924 10.3981 2 11.6995C1.98324 13.0507 2.25462 14.3899 2.79605 15.628C3.33749 16.866 4.13655 17.9745 5.14 18.8795C5.21967 18.9505 5.28453 19.0365 5.33086 19.1326C5.3772 19.2287 5.40409 19.333 5.41 19.4395V21.2195C5.41548 21.3507 5.45278 21.4787 5.5187 21.5922C5.58461 21.7058 5.67716 21.8017 5.78836 21.8716C5.89956 21.9414 6.02608 21.9832 6.15703 21.9933C6.28797 22.0034 6.4194 21.9815 6.54 21.9295L8.54 21.0595C8.71078 20.995 8.89922 20.995 9.07 21.0595C10.0154 21.3147 10.9907 21.4425 11.97 21.4395C14.5479 21.4435 17.0218 20.4232 18.8475 18.6032C20.6731 16.7832 21.701 14.3124 21.705 11.7345C21.709 9.15661 20.6887 6.68271 18.8687 4.85705C17.0486 3.03138 14.5779 2.0035 12 1.99952ZM18 9.45952L15.07 14.1195C14.9595 14.295 14.8138 14.4456 14.6422 14.5619C14.4705 14.6782 14.2766 14.7577 14.0727 14.7952C13.8688 14.8328 13.6593 14.8277 13.4574 14.7803C13.2556 14.7328 13.0658 14.644 12.9 14.5195L10.56 12.7695C10.4561 12.6916 10.3298 12.6495 10.2 12.6495C10.0702 12.6495 9.94386 12.6916 9.84 12.7695L6.68 15.1695C6.59199 15.2374 6.48278 15.2719 6.37176 15.2669C6.26073 15.2618 6.15507 15.2177 6.07355 15.1421C5.99202 15.0666 5.9399 14.9646 5.92643 14.8543C5.91297 14.744 5.93903 14.6324 6 14.5395L8.93 9.87952C9.0405 9.70407 9.18618 9.55344 9.35784 9.43714C9.52949 9.32083 9.7234 9.24138 9.92731 9.20379C10.1312 9.1662 10.3407 9.1713 10.5425 9.21876C10.7444 9.26622 10.9342 9.355 11.1 9.47952L13.44 11.2295C13.5439 11.3074 13.6702 11.3495 13.8 11.3495C13.9298 11.3495 14.0561 11.3074 14.16 11.2295L17.32 8.82952C17.408 8.76165 17.5172 8.72716 17.6282 8.73217C17.7393 8.73719 17.8449 8.78139 17.9264 8.85692C18.008 8.93245 18.0601 9.03443 18.0736 9.14475C18.087 9.25507 18.061 9.3666 18 9.45952Z" fill="#5756D5"/>
</svg>
