<svg width="159" height="104" viewBox="0 0 159 104" fill="none" xmlns="http://www.w3.org/2000/svg">
<path d="M140.418 80.7761C111.464 85.411 68.9328 87.4825 47.8956 87.5314C45.1675 87.5377 43 85.3128 43 82.5847V47.4537C43 44.5213 45.5124 42.2205 48.4426 42.334C74.3587 43.3374 114.021 37.4287 134.864 34.2758C137.675 33.8505 140.253 35.8564 140.557 38.6835L144.502 75.3672C144.782 77.977 143.01 80.3613 140.418 80.7761Z" fill="white" fill-opacity="0.6"/>
<path d="M88 86C122.8 82.8 127.5 71 127.5 66L43 67V82.5473C43 85.3847 45.3585 87.6535 48.1937 87.5435L88 86Z" fill="#6F6FBF" fill-opacity="0.2"/>
<g filter="url(#filter0_d_2927_11394)">
<path d="M18 70.5V31C18 28.2386 20.2405 26.0012 23.0019 25.988C62.6765 25.798 98.9745 23.3819 118.712 20.7682C121.583 20.3879 124.223 22.4492 124.485 25.3338L128.089 64.9841C128.322 67.5463 126.586 69.8643 124.043 70.2583C110.446 72.3652 80.6603 75.5 41 75.5H23C20.2386 75.5 18 73.2614 18 70.5Z" fill="white"/>
</g>
<path d="M38.7587 56.9506L40.7275 56.8383L40.0809 45.5007C39.9922 45.4377 39.5203 45.2262 38.9772 45.2572C38.2814 45.2969 37.9045 45.5567 37.3837 45.9781L35.4273 47.5029C34.8895 47.9253 34.6684 48.2273 34.6964 48.7195C34.7284 49.2796 35.3418 49.5852 35.638 49.7045L38.2253 47.5988L38.7587 56.9506ZM48.1907 56.4127L50.1256 56.3023L49.6503 47.9689C49.5286 47.9247 49.1474 47.8102 48.7401 47.8335C48.0782 47.8712 47.7203 48.1641 47.7561 48.7921L48.1907 56.4127ZM48.4544 44.0186C47.7925 44.0563 47.3124 44.5945 47.3501 45.2564C47.3879 45.9184 47.9261 46.3985 48.588 46.3607C49.2499 46.323 49.7301 45.7848 49.6923 45.1229C49.6546 44.4609 49.1164 43.9808 48.4544 44.0186ZM52.2846 56.1792L54.2195 56.0689L53.5168 43.7469C53.395 43.7027 53.0139 43.5882 52.6066 43.6115C51.9446 43.6492 51.5877 43.9591 51.6226 44.5701L52.2846 56.1792ZM59.9977 54.922C60.2649 55.1281 61.9247 55.8678 64.3518 55.7294C66.8807 55.5852 68.2095 54.4026 68.1127 52.7053C68.0266 51.1948 66.8987 50.5269 65.0002 50.3798L63.2565 50.2579C62.3162 50.1923 61.7916 49.9498 61.7577 49.3558C61.718 48.6599 62.3606 48.2827 63.6674 48.2082C65.5514 48.1007 66.6254 48.7206 66.8227 48.8966C66.9556 48.838 67.3936 48.4554 67.3645 47.9462C67.3171 47.1146 65.9264 46.6149 63.5672 46.7495C60.7668 46.9092 59.7682 48.2092 59.8504 49.6518C59.9453 51.3151 61.2589 51.9554 63.0856 52.0385L64.4181 52.1157C65.6479 52.1818 66.0727 52.4641 66.1085 53.0921C66.1511 53.8389 65.3349 54.1579 64.1638 54.2247C62.3817 54.3263 60.9711 53.7767 60.653 53.5735L59.9977 54.922ZM69.9532 55.1716L71.888 55.0612L71.4128 46.7277C71.2911 46.6836 70.9099 46.5691 70.5026 46.5924C69.8407 46.6301 69.4828 46.923 69.5186 47.5509L69.9532 55.1716ZM70.2169 42.7774C69.555 42.8152 69.0749 43.3534 69.1126 44.0153C69.1504 44.6772 69.6886 45.1574 70.3505 45.1196C71.0124 45.0819 71.4926 44.5437 71.4548 43.8817C71.4171 43.2198 70.8788 42.7397 70.2169 42.7774ZM73.4022 54.9749L81.6168 54.5064L81.52 52.8091L75.7833 53.1363C76.8624 52.0531 79.4716 49.4353 80.5119 48.2692C81.04 47.6771 81.1914 47.345 81.1672 46.9207C81.1314 46.2927 80.7066 46.0104 80.0447 46.0482L73.1369 46.4421C73.0768 46.5818 72.9453 46.9639 72.9676 47.3542C72.9995 47.9143 73.2885 48.2043 74.0353 48.1618L78.533 47.9052C77.3806 49.197 74.7273 51.9365 73.3063 53.2946L73.4022 54.9749ZM83.246 54.4135L85.1809 54.3031L84.7056 45.9696C84.5839 45.9255 84.2028 45.811 83.7954 45.8343C83.1335 45.872 82.7756 46.1649 82.8114 46.7928L83.246 54.4135ZM83.5098 42.0193C82.8478 42.0571 82.3677 42.5953 82.4055 43.2572C82.4432 43.9191 82.9814 44.3993 83.6433 44.3615C84.3053 44.3238 84.7854 43.7856 84.7477 43.1236C84.7099 42.4617 84.1717 41.9816 83.5098 42.0193ZM87.2551 54.1848L89.19 54.0745L88.9248 49.424C88.8367 47.8795 89.52 47.0232 90.9966 46.939C92.4393 46.8567 93.2495 47.6279 93.3376 49.1724L93.6028 53.8228L95.5377 53.7125L95.2444 48.5698C95.1156 46.3125 93.307 45.0534 90.8969 45.1909C88.5208 45.3264 86.8331 46.7848 86.9618 49.0422L87.2551 54.1848ZM97.5831 53.5958L99.518 53.4855L98.8152 41.1635C98.6935 41.1193 98.3124 41.0049 97.905 41.0281C97.2431 41.0658 96.8862 41.3757 96.921 41.9867L97.5831 53.5958ZM104.19 46.0674C105.884 45.9197 106.881 46.9866 107.067 47.8445C106.607 47.8537 106.335 47.8522 105.877 47.8783C101.99 48.1 101.017 49.2453 101.106 50.8067C101.193 52.3342 102.556 53.5506 104.915 53.416C107.563 53.265 109.418 51.15 109.271 48.5872C109.132 46.1431 106.982 44.2735 104.47 44.4168C102.23 44.5445 101.443 45.3727 101.48 46.0346C101.507 46.4929 101.92 46.878 102.203 47.0661C102.571 46.6535 103.07 46.1313 104.19 46.0674ZM107.235 49.0098C107.259 50.3196 106.447 51.6089 104.784 51.7037C103.765 51.7618 102.964 51.4499 102.915 50.5843C102.877 49.9224 103.263 49.2193 105.775 49.0761C106.25 49.049 106.708 49.0228 107.235 49.0098Z" fill="#6F6FBF"/>
<path d="M38.7587 56.9506L38.6588 56.9563C38.662 57.0114 38.7092 57.0536 38.7644 57.0504L38.7587 56.9506ZM40.7275 56.8383L40.7332 56.9381C40.7883 56.935 40.8305 56.8878 40.8273 56.8326L40.7275 56.8383ZM40.0809 45.5007L40.1807 45.495C40.179 45.4647 40.1636 45.4368 40.1388 45.4192L40.0809 45.5007ZM37.3837 45.9781L37.4452 46.057L37.4466 46.0558L37.3837 45.9781ZM35.4273 47.5029L35.3659 47.4241L35.3656 47.4243L35.4273 47.5029ZM35.638 49.7045L35.6007 49.7973C35.6344 49.8109 35.6729 49.8051 35.7012 49.7821L35.638 49.7045ZM38.2253 47.5988L38.3252 47.5931C38.323 47.5556 38.3001 47.5224 38.2657 47.5073C38.2313 47.4921 38.1913 47.4975 38.1622 47.5212L38.2253 47.5988ZM38.7644 57.0504L40.7332 56.9381L40.7218 56.7385L38.753 56.8508L38.7644 57.0504ZM40.8273 56.8326L40.1807 45.495L39.981 45.5064L40.6276 56.844L40.8273 56.8326ZM40.1388 45.4192C40.0813 45.3783 39.9289 45.3059 39.7272 45.2476C39.5224 45.1885 39.2571 45.1411 38.9715 45.1573L38.9829 45.357C39.2404 45.3423 39.4826 45.3851 39.6717 45.4398C39.8638 45.4953 39.9917 45.5601 40.023 45.5822L40.1388 45.4192ZM38.9715 45.1573C38.2436 45.1989 37.8463 45.4752 37.3208 45.9003L37.4466 46.0558C37.9628 45.6383 38.3191 45.3949 38.9829 45.357L38.9715 45.1573ZM37.3222 45.8992L35.3659 47.4241L35.4888 47.5818L37.4452 46.057L37.3222 45.8992ZM35.3656 47.4243C35.0945 47.6372 34.8934 47.827 34.7649 48.0319C34.6339 48.241 34.5815 48.4605 34.5966 48.7252L34.7963 48.7138C34.7833 48.4864 34.8274 48.3088 34.9344 48.1381C35.0439 47.9634 35.2224 47.791 35.4891 47.5816L35.3656 47.4243ZM34.5966 48.7252C34.6147 49.0435 34.7983 49.2833 35.0042 49.4543C35.2102 49.6252 35.4486 49.736 35.6007 49.7973L35.6754 49.6118C35.5312 49.5537 35.3148 49.4521 35.132 49.3004C34.9492 49.1487 34.81 48.9556 34.7963 48.7138L34.5966 48.7252ZM35.7012 49.7821L38.2885 47.6763L38.1622 47.5212L35.5749 49.627L35.7012 49.7821ZM38.1255 47.6045L38.6588 56.9563L38.8585 56.9449L38.3252 47.5931L38.1255 47.6045ZM48.1907 56.4127L48.0909 56.4184C48.094 56.4735 48.1413 56.5157 48.1964 56.5125L48.1907 56.4127ZM50.1256 56.3023L50.1312 56.4022C50.1864 56.399 50.2285 56.3518 50.2254 56.2966L50.1256 56.3023ZM49.6503 47.9689L49.7501 47.9632C49.7479 47.9232 49.722 47.8885 49.6844 47.8749L49.6503 47.9689ZM48.1964 56.5125L50.1312 56.4022L50.1199 56.2025L48.185 56.3128L48.1964 56.5125ZM50.2254 56.2966L49.7501 47.9632L49.5505 47.9746L50.0257 56.308L50.2254 56.2966ZM49.6844 47.8749C49.5564 47.8285 49.1608 47.7093 48.7344 47.7336L48.7458 47.9333C49.1341 47.9112 49.5007 48.021 49.6162 48.0629L49.6844 47.8749ZM48.7344 47.7336C48.3924 47.7531 48.1103 47.8392 47.9182 48.0183C47.7228 48.2006 47.6372 48.4634 47.6563 48.7978L47.8559 48.7864C47.8392 48.4928 47.9146 48.2951 48.0546 48.1646C48.1981 48.0308 48.4259 47.9516 48.7458 47.9333L48.7344 47.7336ZM47.6563 48.7978L48.0909 56.4184L48.2905 56.407L47.8559 48.7864L47.6563 48.7978ZM48.4487 43.9187C47.7317 43.9596 47.2094 44.5451 47.2503 45.2621L47.45 45.2507C47.4154 44.644 47.8533 44.153 48.4601 44.1184L48.4487 43.9187ZM47.2503 45.2621C47.2912 45.9792 47.8766 46.5015 48.5937 46.4606L48.5823 46.2609C47.9755 46.2955 47.4846 45.8575 47.45 45.2507L47.2503 45.2621ZM48.5937 46.4606C49.3108 46.4197 49.833 45.8342 49.7922 45.1172L49.5925 45.1286C49.6271 45.7353 49.1891 46.2263 48.5823 46.2609L48.5937 46.4606ZM49.7922 45.1172C49.7513 44.4001 49.1658 43.8778 48.4487 43.9187L48.4601 44.1184C49.0669 44.0838 49.5579 44.5218 49.5925 45.1286L49.7922 45.1172ZM52.2846 56.1792L52.1848 56.1849C52.1879 56.24 52.2352 56.2822 52.2903 56.279L52.2846 56.1792ZM54.2195 56.0689L54.2252 56.1687C54.2803 56.1655 54.3225 56.1183 54.3193 56.0632L54.2195 56.0689ZM53.5168 43.7469L53.6166 43.7412C53.6143 43.7012 53.5885 43.6665 53.5509 43.6529L53.5168 43.7469ZM52.2903 56.279L54.2252 56.1687L54.2138 55.969L52.2789 56.0794L52.2903 56.279ZM54.3193 56.0632L53.6166 43.7412L53.4169 43.7526L54.1196 56.0745L54.3193 56.0632ZM53.5509 43.6529C53.4229 43.6065 53.0272 43.4873 52.6009 43.5116L52.6123 43.7113C53.0006 43.6892 53.3672 43.799 53.4827 43.8409L53.5509 43.6529ZM52.6009 43.5116C52.2576 43.5312 51.976 43.6221 51.7846 43.8032C51.5902 43.987 51.5041 44.2491 51.5227 44.5758L51.7224 44.5644C51.7062 44.28 51.7812 44.0817 51.922 43.9484C52.0658 43.8124 52.2937 43.7295 52.6123 43.7113L52.6009 43.5116ZM51.5227 44.5758L52.1848 56.1849L52.3845 56.1735L51.7224 44.5644L51.5227 44.5758ZM59.9977 54.922L59.9078 54.8783C59.8871 54.9209 59.8991 54.9722 59.9367 55.0012L59.9977 54.922ZM65.0002 50.3798L65.008 50.2801L65.0072 50.28L65.0002 50.3798ZM63.2565 50.2579L63.2634 50.1581L63.2634 50.1581L63.2565 50.2579ZM66.8227 48.8966L66.7562 48.9712C66.7854 48.9973 66.8273 49.0039 66.8631 48.9881L66.8227 48.8966ZM63.0856 52.0385L63.0914 51.9387L63.0901 51.9386L63.0856 52.0385ZM64.4181 52.1157L64.4124 52.2156L64.4128 52.2156L64.4181 52.1157ZM60.653 53.5735L60.7069 53.4892C60.6828 53.4739 60.6533 53.4695 60.6259 53.4772C60.5984 53.485 60.5756 53.5041 60.5631 53.5298L60.653 53.5735ZM59.9367 55.0012C60.0142 55.061 60.178 55.1499 60.4111 55.2469C60.6467 55.345 60.9596 55.4539 61.3399 55.5517C62.1005 55.7474 63.1326 55.8991 64.3575 55.8292L64.3461 55.6296C63.1439 55.6981 62.1326 55.5491 61.3897 55.358C61.0183 55.2625 60.7144 55.1565 60.4879 55.0622C60.2587 54.9669 60.1149 54.886 60.0588 54.8428L59.9367 55.0012ZM64.3575 55.8292C65.6347 55.7564 66.6224 55.4208 67.2806 54.8768C67.9422 54.33 68.2627 53.5789 68.2125 52.6997L68.0129 52.711C68.0595 53.529 67.764 54.2178 67.1532 54.7227C66.5389 55.2304 65.5977 55.5582 64.3461 55.6296L64.3575 55.8292ZM68.2125 52.6997C68.1679 51.9166 67.8508 51.3428 67.2938 50.9496C66.7423 50.5603 65.9647 50.3542 65.008 50.2801L64.9925 50.4795C65.9342 50.5525 66.6698 50.7539 67.1784 51.113C67.6815 51.4681 67.9714 51.9835 68.0129 52.711L68.2125 52.6997ZM65.0072 50.28L63.2634 50.1581L63.2495 50.3576L64.9933 50.4795L65.0072 50.28ZM63.2634 50.1581C62.7973 50.1256 62.4494 50.0497 62.2164 49.918C61.9914 49.7907 61.8724 49.6112 61.8575 49.3501L61.6578 49.3614C61.6768 49.6943 61.8371 49.9332 62.1179 50.092C62.3908 50.2464 62.7754 50.3246 63.2495 50.3576L63.2634 50.1581ZM61.8575 49.3501C61.8485 49.1926 61.8782 49.0579 61.9428 48.9421C62.0077 48.826 62.1112 48.723 62.2589 48.6348C62.5571 48.4566 63.025 48.345 63.6731 48.308L63.6617 48.1083C63.0029 48.1459 62.4962 48.2601 62.1563 48.4631C61.9849 48.5655 61.8535 48.692 61.7683 48.8446C61.6827 48.9976 61.647 49.171 61.6578 49.3614L61.8575 49.3501ZM63.6731 48.308C64.6029 48.255 65.3305 48.3815 65.848 48.5416C66.3686 48.7026 66.6718 48.896 66.7562 48.9712L66.8893 48.822C66.7763 48.7212 66.4439 48.5166 65.9071 48.3505C65.3673 48.1836 64.6159 48.0539 63.6617 48.1083L63.6731 48.308ZM66.8631 48.9881C66.9098 48.9675 66.9709 48.9251 67.0335 48.8701C67.0978 48.8136 67.1691 48.7391 67.2349 48.6496C67.366 48.4713 67.4806 48.2258 67.4643 47.9405L67.2647 47.9519C67.2774 48.1758 67.1877 48.3762 67.0738 48.5311C67.0171 48.6082 66.9558 48.6722 66.9016 48.7198C66.8456 48.769 66.8022 48.7964 66.7824 48.8051L66.8631 48.9881ZM67.4643 47.9405C67.437 47.4602 67.023 47.106 66.3638 46.8905C65.6987 46.673 64.7473 46.582 63.5615 46.6497L63.5729 46.8493C64.7463 46.7824 65.6698 46.874 66.3017 47.0806C66.9395 47.2891 67.2446 47.6006 67.2647 47.9519L67.4643 47.9405ZM63.5615 46.6497C62.1482 46.7303 61.1735 47.0993 60.5613 47.6449C59.9463 48.193 59.7079 48.9097 59.7506 49.6575L59.9503 49.6461C59.9106 48.9513 60.1305 48.2967 60.6943 47.7942C61.261 47.2892 62.1857 46.9284 63.5729 46.8493L63.5615 46.6497ZM59.7506 49.6575C59.7997 50.519 60.1671 51.1243 60.7632 51.521C61.3535 51.9138 62.1597 52.0965 63.081 52.1384L63.0901 51.9386C62.1848 51.8974 61.4208 51.7183 60.874 51.3545C60.3329 50.9944 59.996 50.448 59.9503 49.6461L59.7506 49.6575ZM63.0798 52.1383L64.4124 52.2156L64.4239 52.0159L63.0914 51.9387L63.0798 52.1383ZM64.4128 52.2156C65.0251 52.2485 65.4177 52.335 65.6599 52.4791C65.7786 52.5498 65.8601 52.6337 65.9147 52.7323C65.9696 52.8316 66.0003 52.9514 66.0086 53.0978L66.2083 53.0864C66.1987 52.9188 66.1629 52.7678 66.0897 52.6355C66.0161 52.5025 65.9078 52.3939 65.7622 52.3073C65.4756 52.1367 65.0409 52.0491 64.4235 52.0159L64.4128 52.2156ZM66.0086 53.0978C66.0181 53.2647 65.9799 53.4032 65.9036 53.52C65.8264 53.6381 65.7066 53.7397 65.5447 53.8249C65.2187 53.9963 64.739 54.0917 64.1581 54.1248L64.1695 54.3245C64.7597 54.2908 65.2737 54.1933 65.6378 54.0019C65.821 53.9056 65.9705 53.7833 66.071 53.6294C66.1723 53.4743 66.2201 53.2929 66.2083 53.0864L66.0086 53.0978ZM64.1581 54.1248C63.2786 54.175 62.4904 54.0644 61.8831 53.9162C61.2731 53.7674 60.8528 53.5825 60.7069 53.4892L60.5992 53.6578C60.7713 53.7677 61.2154 53.9592 61.8357 54.1105C62.4588 54.2626 63.2669 54.376 64.1695 54.3245L64.1581 54.1248ZM60.5631 53.5298L59.9078 54.8783L60.0877 54.9657L60.743 53.6172L60.5631 53.5298ZM69.9532 55.1716L69.8533 55.1772C69.8565 55.2324 69.9037 55.2745 69.9589 55.2714L69.9532 55.1716ZM71.888 55.0612L71.8937 55.161C71.9489 55.1579 71.991 55.1107 71.9879 55.0555L71.888 55.0612ZM71.4128 46.7277L71.5126 46.7221C71.5103 46.6821 71.4845 46.6474 71.4469 46.6337L71.4128 46.7277ZM69.9589 55.2714L71.8937 55.161L71.8823 54.9614L69.9475 55.0717L69.9589 55.2714ZM71.9879 55.0555L71.5126 46.7221L71.3129 46.7334L71.7882 55.0669L71.9879 55.0555ZM71.4469 46.6337C71.3189 46.5873 70.9233 46.4682 70.4969 46.4925L70.5083 46.6922C70.8966 46.67 71.2632 46.7799 71.3787 46.8218L71.4469 46.6337ZM70.4969 46.4925C70.1549 46.512 69.8728 46.5981 69.6807 46.7772C69.4853 46.9595 69.3997 47.2222 69.4187 47.5566L69.6184 47.5452C69.6017 47.2517 69.6771 47.054 69.8171 46.9234C69.9606 46.7897 70.1884 46.7104 70.5083 46.6922L70.4969 46.4925ZM69.4187 47.5566L69.8533 55.1772L70.053 55.1659L69.6184 47.5452L69.4187 47.5566ZM70.2112 42.6776C69.4942 42.7185 68.9719 43.3039 69.0128 44.021L69.2124 44.0096C69.1778 43.4028 69.6158 42.9119 70.2226 42.8773L70.2112 42.6776ZM69.0128 44.021C69.0537 44.7381 69.6391 45.2604 70.3562 45.2195L70.3448 45.0198C69.738 45.0544 69.2471 44.6164 69.2124 44.0096L69.0128 44.021ZM70.3562 45.2195C71.0733 45.1786 71.5955 44.5931 71.5546 43.876L71.355 43.8874C71.3896 44.4942 70.9516 44.9852 70.3448 45.0198L70.3562 45.2195ZM71.5546 43.876C71.5137 43.159 70.9283 42.6367 70.2112 42.6776L70.2226 42.8773C70.8294 42.8427 71.3204 43.2806 71.355 43.8874L71.5546 43.876ZM73.4022 54.9749L73.3023 54.9805C73.3055 55.0357 73.3527 55.0778 73.4079 55.0747L73.4022 54.9749ZM81.6168 54.5064L81.6225 54.6062C81.6777 54.6031 81.7198 54.5558 81.7167 54.5007L81.6168 54.5064ZM81.52 52.8091L81.6199 52.8034C81.6167 52.7483 81.5695 52.7061 81.5143 52.7093L81.52 52.8091ZM75.7833 53.1363L75.7125 53.0657C75.6832 53.0951 75.6751 53.1395 75.6921 53.1773C75.7091 53.2151 75.7477 53.2385 75.789 53.2361L75.7833 53.1363ZM80.5119 48.2692L80.5865 48.3357L80.5119 48.2692ZM73.1369 46.4421L73.1312 46.3423C73.0934 46.3444 73.06 46.3678 73.0451 46.4026L73.1369 46.4421ZM78.533 47.9052L78.6076 47.9718C78.6345 47.9416 78.6406 47.8982 78.623 47.8618C78.6054 47.8254 78.5677 47.8031 78.5273 47.8054L78.533 47.9052ZM73.3063 53.2946L73.2372 53.2223C73.2161 53.2425 73.2048 53.271 73.2065 53.3003L73.3063 53.2946ZM73.4079 55.0747L81.6225 54.6062L81.6111 54.4065L73.3965 54.875L73.4079 55.0747ZM81.7167 54.5007L81.6199 52.8034L81.4202 52.8148L81.517 54.5121L81.7167 54.5007ZM81.5143 52.7093L75.7777 53.0365L75.789 53.2361L81.5257 52.909L81.5143 52.7093ZM75.8542 53.2069C76.9321 52.1249 79.5439 49.5045 80.5865 48.3357L80.4373 48.2026C79.3993 49.3661 76.7928 51.9813 75.7125 53.0657L75.8542 53.2069ZM80.5865 48.3357C80.8526 48.0375 81.0299 47.7981 81.1368 47.5753C81.2454 47.3491 81.28 47.143 81.267 46.915L81.0673 46.9264C81.0785 47.1226 81.0496 47.2948 80.9565 47.4887C80.8618 47.6861 80.6993 47.9088 80.4373 48.2026L80.5865 48.3357ZM81.267 46.915C81.2478 46.5781 81.1225 46.3203 80.9005 46.1546C80.6816 45.9913 80.3835 45.9287 80.039 45.9483L80.0504 46.148C80.3677 46.1299 80.613 46.1896 80.7809 46.3149C80.9458 46.438 81.0507 46.6353 81.0673 46.9264L81.267 46.915ZM80.039 45.9483L73.1312 46.3423L73.1426 46.542L80.0504 46.148L80.039 45.9483ZM73.0451 46.4026C72.982 46.549 72.8442 46.9476 72.8677 47.3599L73.0674 47.3485C73.0464 46.9802 73.1715 46.6146 73.2287 46.4817L73.0451 46.4026ZM72.8677 47.3599C72.8845 47.6548 72.9703 47.8999 73.1705 48.0617C73.3681 48.2217 73.657 48.2835 74.041 48.2616L74.0296 48.0619C73.6668 48.0826 73.4377 48.0207 73.2962 47.9063C73.1572 47.7938 73.0825 47.6138 73.0674 47.3485L72.8677 47.3599ZM74.041 48.2616L78.5387 48.0051L78.5273 47.8054L74.0296 48.0619L74.041 48.2616ZM78.4583 47.8387C77.3079 49.1282 74.6565 51.8659 73.2372 53.2223L73.3754 53.3669C74.7982 52.0071 77.4534 49.2657 78.6076 47.9718L78.4583 47.8387ZM73.2065 53.3003L73.3023 54.9805L73.502 54.9692L73.4062 53.2889L73.2065 53.3003ZM83.246 54.4135L83.1462 54.4191C83.1493 54.4743 83.1966 54.5164 83.2517 54.5133L83.246 54.4135ZM85.1809 54.3031L85.1866 54.4029C85.2417 54.3998 85.2839 54.3526 85.2807 54.2974L85.1809 54.3031ZM84.7056 45.9696L84.8055 45.964C84.8032 45.924 84.7773 45.8893 84.7397 45.8756L84.7056 45.9696ZM83.2517 54.5133L85.1866 54.4029L85.1752 54.2033L83.2403 54.3136L83.2517 54.5133ZM85.2807 54.2974L84.8055 45.964L84.6058 45.9753L85.0811 54.3088L85.2807 54.2974ZM84.7397 45.8756C84.6118 45.8292 84.2161 45.7101 83.7898 45.7344L83.8011 45.9341C84.1894 45.9119 84.5561 46.0218 84.6715 46.0637L84.7397 45.8756ZM83.7898 45.7344C83.4477 45.7539 83.1656 45.84 82.9736 46.0191C82.7781 46.2014 82.6925 46.4641 82.7116 46.7985L82.9113 46.7871C82.8945 46.4936 82.97 46.2959 83.11 46.1653C83.2534 46.0316 83.4813 45.9523 83.8011 45.9341L83.7898 45.7344ZM82.7116 46.7985L83.1462 54.4191L83.3459 54.4078L82.9113 46.7871L82.7116 46.7985ZM83.5041 41.9195C82.787 41.9604 82.2647 42.5458 82.3056 43.2629L82.5053 43.2515C82.4707 42.6447 82.9087 42.1538 83.5155 42.1192L83.5041 41.9195ZM82.3056 43.2629C82.3465 43.98 82.932 44.5023 83.649 44.4614L83.6377 44.2617C83.0309 44.2963 82.5399 43.8583 82.5053 43.2515L82.3056 43.2629ZM83.649 44.4614C84.3661 44.4205 84.8884 43.835 84.8475 43.1179L84.6478 43.1293C84.6824 43.7361 84.2444 44.2271 83.6377 44.2617L83.649 44.4614ZM84.8475 43.1179C84.8066 42.4009 84.2211 41.8786 83.5041 41.9195L83.5155 42.1192C84.1222 42.0846 84.6132 42.5225 84.6478 43.1293L84.8475 43.1179ZM87.2551 54.1848L87.1553 54.1905C87.1584 54.2456 87.2057 54.2878 87.2608 54.2847L87.2551 54.1848ZM89.19 54.0745L89.1957 54.1743C89.2508 54.1712 89.2929 54.1239 89.2898 54.0688L89.19 54.0745ZM93.6028 53.8228L93.503 53.8285C93.5061 53.8836 93.5534 53.9258 93.6085 53.9226L93.6028 53.8228ZM95.5377 53.7125L95.5433 53.8123C95.5985 53.8091 95.6406 53.7619 95.6375 53.7068L95.5377 53.7125ZM87.2608 54.2847L89.1957 54.1743L89.1843 53.9746L87.2494 54.085L87.2608 54.2847ZM89.2898 54.0688L89.0246 49.4183L88.8249 49.4297L89.0901 54.0802L89.2898 54.0688ZM89.0246 49.4183C88.9813 48.6601 89.1286 48.0886 89.4511 47.6975C89.7723 47.3079 90.282 47.0799 91.0023 47.0389L90.9909 46.8392C90.2346 46.8823 89.6643 47.1246 89.2968 47.5703C88.9305 48.0145 88.7801 48.6434 88.8249 49.4297L89.0246 49.4183ZM91.0023 47.0389C91.705 46.9988 92.2379 47.167 92.6061 47.518C92.9753 47.8701 93.1946 48.4209 93.2377 49.1781L93.4374 49.1667C93.3925 48.3793 93.1626 47.7723 92.7441 47.3733C92.3244 46.9732 91.7309 46.797 90.9909 46.8392L91.0023 47.0389ZM93.2377 49.1781L93.503 53.8285L93.7026 53.8171L93.4374 49.1667L93.2377 49.1781ZM93.6085 53.9226L95.5433 53.8123L95.532 53.6126L93.5971 53.723L93.6085 53.9226ZM95.6375 53.7068L95.3442 48.5641L95.1445 48.5755L95.4378 53.7181L95.6375 53.7068ZM95.3442 48.5641C95.2783 47.4078 94.7807 46.5009 93.9863 45.9024C93.1939 45.3054 92.1143 45.0213 90.8912 45.091L90.9026 45.2907C92.0896 45.223 93.1194 45.4997 93.866 46.0622C94.6107 46.6232 95.0817 47.4745 95.1445 48.5755L95.3442 48.5641ZM90.8912 45.091C89.6849 45.1598 88.6448 45.565 87.9214 46.2481C87.1962 46.9329 86.796 47.8909 86.862 49.0479L87.0617 49.0365C86.9989 47.9361 87.3782 47.0362 88.0587 46.3935C88.7409 45.7493 89.7328 45.3574 90.9026 45.2907L90.8912 45.091ZM86.862 49.0479L87.1553 54.1905L87.3549 54.1791L87.0617 49.0365L86.862 49.0479ZM97.5831 53.5958L97.4833 53.6015C97.4864 53.6566 97.5336 53.6988 97.5888 53.6956L97.5831 53.5958ZM99.518 53.4855L99.5236 53.5853C99.5788 53.5821 99.6209 53.5349 99.6178 53.4798L99.518 53.4855ZM98.8152 41.1635L98.9151 41.1578C98.9128 41.1178 98.8869 41.0831 98.8493 41.0695L98.8152 41.1635ZM97.5888 53.6956L99.5236 53.5853L99.5123 53.3856L97.5774 53.496L97.5888 53.6956ZM99.6178 53.4798L98.9151 41.1578L98.7154 41.1692L99.4181 53.4912L99.6178 53.4798ZM98.8493 41.0695C98.7214 41.0231 98.3257 40.9039 97.8993 40.9282L97.9107 41.1279C98.299 41.1058 98.6657 41.2156 98.7811 41.2575L98.8493 41.0695ZM97.8993 40.9282C97.556 40.9478 97.2745 41.0387 97.083 41.2198C96.8886 41.4036 96.8026 41.6657 96.8212 41.9924L97.0209 41.981C97.0046 41.6966 97.0796 41.4983 97.2205 41.3651C97.3642 41.229 97.5921 41.1461 97.9107 41.1279L97.8993 40.9282ZM96.8212 41.9924L97.4833 53.6015L97.6829 53.5901L97.0209 41.981L96.8212 41.9924ZM104.19 46.0674L104.195 46.1673L104.198 46.167L104.19 46.0674ZM107.067 47.8445L107.069 47.9445C107.098 47.9439 107.127 47.93 107.145 47.9065C107.164 47.8831 107.171 47.8526 107.164 47.8234L107.067 47.8445ZM102.203 47.0661L102.148 47.1494C102.189 47.177 102.245 47.1698 102.278 47.1327L102.203 47.0661ZM107.235 49.0098L107.335 49.008C107.335 48.9814 107.324 48.956 107.304 48.9376C107.285 48.9192 107.259 48.9092 107.233 48.9098L107.235 49.0098ZM104.198 46.167C105.843 46.0237 106.794 47.0574 106.969 47.8656L107.164 47.8234C106.968 46.9159 105.925 45.8157 104.181 45.9678L104.198 46.167ZM107.065 47.7445C106.607 47.7536 106.332 47.7522 105.871 47.7785L105.882 47.9781C106.338 47.9522 106.607 47.9537 107.069 47.9445L107.065 47.7445ZM105.871 47.7785C103.923 47.8896 102.684 48.2326 101.942 48.7585C101.569 49.023 101.322 49.3337 101.175 49.6827C101.028 50.0308 100.983 50.4112 101.006 50.8124L101.205 50.801C101.184 50.4215 101.227 50.0732 101.359 49.7605C101.491 49.4486 101.713 49.1664 102.058 48.9217C102.752 48.4292 103.944 48.0887 105.882 47.9781L105.871 47.7785ZM101.006 50.8124C101.051 51.606 101.429 52.3192 102.099 52.815C102.768 53.3101 103.724 53.5842 104.921 53.5159L104.91 53.3162C103.748 53.3824 102.842 53.1156 102.218 52.6542C101.595 52.1936 101.247 51.535 101.205 50.801L101.006 50.8124ZM104.921 53.5159C107.624 53.3617 109.521 51.1997 109.371 48.5815L109.172 48.5929C109.315 51.1003 107.502 53.1683 104.91 53.3162L104.921 53.5159ZM109.371 48.5815C109.229 46.0799 107.029 44.1707 104.465 44.3169L104.476 44.5166C106.935 44.3764 109.036 46.2064 109.172 48.5929L109.371 48.5815ZM104.465 44.3169C103.334 44.3814 102.559 44.6229 102.067 44.9415C101.574 45.2605 101.359 45.6633 101.381 46.0403L101.58 46.0289C101.564 45.744 101.724 45.4018 102.175 45.1093C102.628 44.8164 103.366 44.5799 104.476 44.5166L104.465 44.3169ZM101.381 46.0403C101.395 46.2977 101.518 46.5279 101.668 46.7142C101.817 46.9011 102 47.051 102.148 47.1494L102.259 46.9829C102.124 46.8931 101.958 46.7564 101.824 46.5891C101.689 46.4212 101.592 46.2298 101.58 46.0289L101.381 46.0403ZM102.278 47.1327C102.461 46.9273 102.67 46.7032 102.967 46.5213C103.263 46.3402 103.651 46.1983 104.195 46.1673L104.184 45.9676C103.608 46.0004 103.188 46.1516 102.862 46.3507C102.538 46.549 102.314 46.7924 102.129 46.9996L102.278 47.1327ZM107.135 49.0116C107.147 49.646 106.956 50.2718 106.565 50.749C106.175 51.2244 105.583 51.558 104.778 51.6039L104.789 51.8036C105.648 51.7546 106.293 51.3961 106.719 50.8757C107.144 50.3571 107.347 49.6833 107.335 49.008L107.135 49.0116ZM104.778 51.6039C104.278 51.6324 103.844 51.5689 103.533 51.4023C103.229 51.2391 103.037 50.9751 103.015 50.5786L102.815 50.59C102.842 51.0592 103.076 51.384 103.439 51.5786C103.795 51.7697 104.271 51.8331 104.789 51.8036L104.778 51.6039ZM103.015 50.5786C103.006 50.4237 103.022 50.2723 103.084 50.1294C103.146 49.9874 103.256 49.8471 103.445 49.7183C103.827 49.4577 104.529 49.2473 105.78 49.1759L105.769 48.9762C104.508 49.0481 103.761 49.2608 103.332 49.5531C103.116 49.7007 102.979 49.8693 102.901 50.0497C102.823 50.2293 102.805 50.414 102.815 50.59L103.015 50.5786ZM105.78 49.1759C106.256 49.1488 106.712 49.1227 107.238 49.1098L107.233 48.9098C106.704 48.9229 106.244 48.9491 105.769 48.9762L105.78 49.1759Z" fill="#6F6FBF"/>
<defs>
<filter id="filter0_d_2927_11394" x="0" y="0.722656" width="158.11" height="102.777" filterUnits="userSpaceOnUse" color-interpolation-filters="sRGB">
<feFlood flood-opacity="0" result="BackgroundImageFix"/>
<feColorMatrix in="SourceAlpha" type="matrix" values="0 0 0 0 0 0 0 0 0 0 0 0 0 0 0 0 0 0 127 0" result="hardAlpha"/>
<feOffset dx="6" dy="4"/>
<feGaussianBlur stdDeviation="12"/>
<feComposite in2="hardAlpha" operator="out"/>
<feColorMatrix type="matrix" values="0 0 0 0 0 0 0 0 0 0 0 0 0 0 0 0 0 0 0.05 0"/>
<feBlend mode="normal" in2="BackgroundImageFix" result="effect1_dropShadow_2927_11394"/>
<feBlend mode="normal" in="SourceGraphic" in2="effect1_dropShadow_2927_11394" result="shape"/>
</filter>
</defs>
</svg>
