<svg width="24" height="24" viewBox="0 0 24 24" fill="none" xmlns="http://www.w3.org/2000/svg">
<path d="M10.6464 13.5532L10.6625 13.5692L10.6799 13.5837C11.3209 14.1178 12.0601 14.5396 12.791 14.854C12.9387 14.9256 13.1392 14.9884 13.3582 14.9571C13.5879 14.9243 13.7799 14.7958 13.9036 14.6005C14.0214 14.4713 14.1631 14.2822 14.2809 14.1251C14.2873 14.1165 14.2937 14.108 14.3 14.0996C14.4619 13.8838 14.5854 13.7213 14.6536 13.6532C14.6581 13.6487 14.6621 13.6449 14.6656 13.6417C14.6689 13.6432 14.6724 13.6448 14.6764 13.6468C14.7825 13.6999 15.156 13.8742 15.5195 14.0438L15.5386 14.0527C15.9191 14.2303 16.2843 14.4008 16.3764 14.4468L16.5557 14.5365C16.5824 14.7556 16.5569 14.9545 16.4657 15.1494C16.1135 15.6656 15.6306 16.033 15.1293 16.1046L15.1293 16.1045L15.1178 16.1064C14.5626 16.1989 14.1663 16.1876 13.7857 16.0354L13.7431 16.0183L13.6981 16.0093C13.3652 15.9428 13.0972 15.8306 12.7508 15.6857C12.6428 15.6405 12.5273 15.5922 12.3998 15.541C10.8005 14.7851 9.46902 13.5538 8.41202 12.0163L8.40618 12.0079L8.4 11.9996C7.86824 11.2906 7.59501 10.4893 7.50014 9.67251C7.50667 9.02509 7.74805 8.45867 8.25355 7.95316C8.25227 7.95445 8.25565 7.951 8.26516 7.94313C8.27413 7.9357 8.2862 7.92628 8.30107 7.91552C8.33119 7.89371 8.36752 7.87019 8.40532 7.84919C8.44388 7.82777 8.47709 7.81279 8.50168 7.80415C8.50787 7.80198 8.51257 7.80053 8.51585 7.79961H8.5164H8.51758H8.51875H8.51992H8.52109H8.52226H8.52343H8.5246H8.52577H8.52694H8.52811H8.52929H8.53046H8.53163H8.5328H8.53397H8.53514H8.53631H8.53748H8.53865H8.53981H8.54098H8.54215H8.54332H8.54449H8.54566H8.54683H8.548H8.54916H8.55033H8.5515H8.55267H8.55383H8.555H8.55617H8.55733H8.5585H8.55967H8.56083H8.562H8.56316H8.56433H8.56549H8.56666H8.56782H8.56899H8.57015H8.57132H8.57248H8.57364H8.5748H8.57597H8.57713H8.57829H8.57945H8.58061H8.58178H8.58294H8.5841H8.58526H8.58642H8.58758H8.58874H8.58989H8.59105H8.59221H8.59337H8.59453H8.59568H8.59684H8.598H8.59915H8.60031H8.60146H8.60262H8.60377H8.60493H8.60608H8.60723H8.60839H8.60954H8.61069H8.61184H8.61299H8.61414H8.61529H8.61644H8.61759H8.61874H8.61989H8.62104H8.62218H8.62333H8.62448H8.62562H8.62677H8.62791H8.62906H8.6302H8.63135H8.63249H8.63363H8.63477H8.63592H8.63706H8.6382H8.63934H8.64048H8.64162H8.64275H8.64389H8.64503H8.64617H8.6473H8.64844H8.64957H8.65071H8.65184H8.65297H8.65411H8.65524H8.65637H8.6575H8.65863H8.65976H8.66089H8.66202H8.66315H8.66427H8.6654H8.66653H8.66765H8.66878H8.6699H8.67102H8.67214H8.67327H8.67439H8.67551H8.67663H8.67775H8.67887H8.67998H8.6811H8.68222H8.68333H8.68445H8.68556H8.68668H8.68779H8.6889H8.69001H8.69112H8.69223H8.69334H8.69445H8.69556H8.69667H8.69777H8.69888H8.69998H8.70109H8.70219H8.70329H8.70439H8.70549H8.70659H8.70769H8.70879H8.70989H8.71098H8.71208H8.71317H8.71427H8.71536H8.71645H8.71755H8.71864H8.71973H8.72082H8.7219H8.72299H8.72408H8.72516H8.72625H8.72733H8.72841H8.7295H8.73058H8.73166H8.73274H8.73382H8.73489H8.73597H8.73705H8.73812H8.73919H8.74027H8.74134H8.74241H8.74348H8.74455H8.74562H8.74668H8.74775H8.74882H8.74988H8.75094H8.752H8.75307H8.75413H8.75519H8.75624H8.7573H8.75836H8.75941H8.76047H8.76152H8.76257H8.76362H8.76467H8.76572H8.76677H8.76782H8.76886H8.76991H8.77095H8.77199H8.77303H8.77408H8.77511H8.77615H8.77719H8.77823H8.77926H8.78029H8.78133H8.78236H8.78339H8.78442H8.78545H8.78647H8.7875H8.78852H8.78955H8.79057H8.79159H8.79261H8.79363H8.79465H8.79567H8.79668H8.7977H8.79871H8.79972H8.80073H8.80174H8.80275H8.80376H8.80476H8.80577H8.80677H8.80777H8.80877H8.80977H8.81077H8.81177H8.81277H8.81376H8.81475H8.81575H8.81674H8.81773H8.81872H8.8197H8.82069H8.82167H8.82266H8.82364H8.82462H8.8256H8.82658H8.82755H8.82853H8.8295H8.83047H8.83145H8.83242H8.83338H8.83435H8.83532H8.83628H8.83725H8.83821H8.83917H8.84013H8.84109H8.84204H8.843H8.84395H8.8449H8.84585H8.8468H8.84775H8.8487H8.84964H8.85059H8.85153H8.85247H8.85341H8.85435H8.85528H8.85622H8.85715H8.85808H8.85901H8.85994H8.86087H8.8618H8.86272H8.86365H8.86457H8.86549H8.86641H8.86732H8.86824H8.86915H8.87007H8.87098H8.87189H8.8728H8.8737H8.87461H8.87551H8.87641H8.87731H8.87821H8.87911H8.88H8.8809H8.88179H8.88268H8.88357H8.88446H8.88535H8.88623H8.88711H8.88799H8.88887H8.88975H8.89063H8.8915H8.89238H8.89325H8.89412H8.89499H8.89585H8.89672H8.89758H8.89844H8.8993H8.90016H8.90102H8.90187H8.90273H8.90358H8.90443H8.90528H8.90612H8.90697H8.90781H8.90865H8.90949H8.91033H8.91117H8.912H8.91284H8.91367H8.9145H8.91532H8.91615H8.91697H8.9178H8.91862H8.91943H8.92025H8.92107H8.92188H8.92269H8.9235H8.92431H8.92512H8.92592H8.92672H8.92752H8.92832H8.92912H8.92991H8.93071H8.9315H8.93229H8.93308H8.93386H8.93465H8.93543H8.93621H8.93699H8.93776H8.93854H8.93931H8.94008H8.94085H8.94162H8.94238H8.94315H8.94391H8.94467H8.94543H8.94618H8.94694H8.94769H8.94844H8.94919H8.94925C8.96687 7.85671 8.98686 7.94314 9.00503 8.07032L9.0135 8.12965L9.03576 8.1853C9.13723 8.43898 9.31405 8.86841 9.47872 9.24841C9.56084 9.43793 9.64173 9.61928 9.7096 9.76166C9.74328 9.8323 9.77622 9.89853 9.80609 9.95335C9.8099 9.96033 9.81383 9.96745 9.81786 9.97464L9.8 9.9925V10.1551C9.79752 10.1609 9.79431 10.168 9.79029 10.176C9.78365 10.1893 9.77628 10.2024 9.76887 10.2142C9.63737 10.3002 9.54322 10.4017 9.47839 10.4795C9.44652 10.5178 9.41571 10.5579 9.39406 10.5862C9.38918 10.5925 9.38477 10.5983 9.38092 10.6033C9.35479 10.6371 9.34682 10.6457 9.34646 10.646L9.34645 10.6461C9.1679 10.8246 8.917 11.2516 9.15279 11.7232L9.16671 11.7511L9.18398 11.777C9.6036 12.4064 10.125 13.0317 10.6464 13.5532ZM3.88216 17.032L3.93669 16.8333L3.83549 16.6539C1.7431 12.9447 2.31606 8.29066 5.35355 5.25316C9.0567 1.55001 15.0366 1.54843 18.7417 5.2484C20.4616 7.06613 21.4943 9.43771 21.4004 11.8804L21.4 11.89V11.8996C21.4 17.1235 17.2239 21.2996 12 21.2996C10.4846 21.2996 8.96516 20.921 7.53529 20.1584L7.36209 20.0661L7.1723 20.1162L2.7121 21.2944L3.88216 17.032ZM7.52265 19.5156L7.54223 19.5287L7.56295 19.5398C8.92662 20.2741 10.4074 20.6996 12 20.6996C13.7061 20.6996 15.2956 20.1663 16.662 19.3254C20.8077 16.7743 21.964 11.3621 19.4258 7.23756L19.4259 7.23754L19.4227 7.23261C16.8828 3.21103 11.5765 1.82077 7.43017 4.47867C3.30406 7.12361 2.03122 12.4235 4.57125 16.6569L4.57737 16.6671L4.58397 16.677L4.65868 16.789L3.91688 19.5708L3.69641 20.3976L4.52494 20.1837L7.40857 19.4396L7.52265 19.5156Z" fill="white" stroke="white"/>
</svg>
