<svg width="24" height="24" viewBox="0 0 24 24" fill="none" xmlns="http://www.w3.org/2000/svg">
<path d="M16.6 13.9996C16.4 13.8996 15.1 13.2996 14.9 13.1996C14.7 13.0996 14.5 13.0996 14.3 13.2996C14.1 13.4996 13.7 14.0996 13.5 14.2996C13.4 14.4996 13.2 14.4996 13 14.3996C12.3 14.0996 11.6 13.6996 11 13.1996C10.5 12.6996 10 12.0996 9.6 11.4996C9.5 11.2996 9.6 11.0996 9.7 10.9996C9.8 10.8996 9.9 10.6996 10.1 10.5996C10.2 10.4996 10.3 10.2996 10.3 10.1996C10.4 10.0996 10.4 9.89961 10.3 9.79961C10.2 9.69961 9.7 8.49961 9.5 7.99961C9.4 7.29961 9.2 7.29961 9 7.29961C8.9 7.29961 8.7 7.29961 8.5 7.29961C8.3 7.29961 8 7.49961 7.9 7.59961C7.3 8.19961 7 8.89961 7 9.69961C7.1 10.5996 7.4 11.4996 8 12.2996C9.1 13.8996 10.5 15.1996 12.2 15.9996C12.7 16.1996 13.1 16.3996 13.6 16.4996C14.1 16.6996 14.6 16.6996 15.2 16.5996C15.9 16.4996 16.5 15.9996 16.9 15.3996C17.1 14.9996 17.1 14.5996 17 14.1996C17 14.1996 16.8 14.0996 16.6 13.9996ZM19.1 4.89961C15.2 0.999609 8.9 0.999609 5 4.89961C1.8 8.09961 1.2 12.9996 3.4 16.8996L2 21.9996L7.3 20.5996C8.8 21.3996 10.4 21.7996 12 21.7996C17.5 21.7996 21.9 17.3996 21.9 11.8996C22 9.29961 20.9 6.79961 19.1 4.89961ZM16.4 18.8996C15.1 19.6996 13.6 20.1996 12 20.1996C10.5 20.1996 9.1 19.7996 7.8 19.0996L7.5 18.8996L4.4 19.6996L5.2 16.6996L5 16.3996C2.6 12.3996 3.8 7.39961 7.7 4.89961C11.6 2.39961 16.6 3.69961 19 7.49961C21.4 11.3996 20.3 16.4996 16.4 18.8996Z" fill="#55A932"/>
</svg>
