<svg width="20" height="21" viewBox="0 0 20 21" fill="none" xmlns="http://www.w3.org/2000/svg">
<path d="M14.5557 13.5365L14.5557 13.5365C14.5824 13.7556 14.5569 13.9545 14.4657 14.1494C14.1135 14.6656 13.6306 15.033 13.1293 15.1046L13.1293 15.1045L13.1178 15.1064C12.5626 15.1989 12.1663 15.1876 11.7857 15.0354L11.7431 15.0183L11.6981 15.0093C11.3652 14.9428 11.0973 14.8306 10.7508 14.6857C10.6428 14.6405 10.5273 14.5922 10.3998 14.541C8.80053 13.7851 7.46902 12.5538 6.41202 11.0163L6.40618 11.0079L6.4 10.9996C5.86824 10.2906 5.59501 9.4893 5.50014 8.67251C5.50667 8.02509 5.74805 7.45867 6.25355 6.95316C6.25227 6.95445 6.25565 6.951 6.26516 6.94313C6.27413 6.9357 6.2862 6.92628 6.30107 6.91552C6.33119 6.89371 6.36752 6.87019 6.40532 6.84919C6.44388 6.82777 6.47709 6.81279 6.50168 6.80415C6.50787 6.80198 6.51257 6.80053 6.51585 6.79961H6.5164H6.51758H6.51875H6.51992H6.52109H6.52226H6.52343H6.5246H6.52577H6.52694H6.52811H6.52929H6.53046H6.53163H6.5328H6.53397H6.53514H6.53631H6.53748H6.53865H6.53981H6.54098H6.54215H6.54332H6.54449H6.54566H6.54683H6.548H6.54916H6.55033H6.5515H6.55267H6.55383H6.555H6.55617H6.55733H6.5585H6.55967H6.56083H6.562H6.56316H6.56433H6.56549H6.56666H6.56782H6.56899H6.57015H6.57132H6.57248H6.57364H6.5748H6.57597H6.57713H6.57829H6.57945H6.58061H6.58178H6.58294H6.5841H6.58526H6.58642H6.58758H6.58874H6.58989H6.59105H6.59221H6.59337H6.59453H6.59568H6.59684H6.598H6.59915H6.60031H6.60146H6.60262H6.60377H6.60493H6.60608H6.60723H6.60839H6.60954H6.61069H6.61184H6.61299H6.61414H6.61529H6.61644H6.61759H6.61874H6.61989H6.62104H6.62218H6.62333H6.62448H6.62562H6.62677H6.62791H6.62906H6.6302H6.63135H6.63249H6.63363H6.63477H6.63592H6.63706H6.6382H6.63934H6.64048H6.64162H6.64275H6.64389H6.64503H6.64617H6.6473H6.64844H6.64957H6.65071H6.65184H6.65297H6.65411H6.65524H6.65637H6.6575H6.65863H6.65976H6.66089H6.66202H6.66315H6.66427H6.6654H6.66653H6.66765H6.66878H6.6699H6.67102H6.67214H6.67327H6.67439H6.67551H6.67663H6.67775H6.67887H6.67998H6.6811H6.68222H6.68333H6.68445H6.68556H6.68668H6.68779H6.6889H6.69001H6.69112H6.69223H6.69334H6.69445H6.69556H6.69667H6.69777H6.69888H6.69998H6.70109H6.70219H6.70329H6.70439H6.70549H6.70659H6.70769H6.70879H6.70989H6.71098H6.71208H6.71317H6.71427H6.71536H6.71645H6.71755H6.71864H6.71973H6.72082H6.7219H6.72299H6.72408H6.72516H6.72625H6.72733H6.72841H6.7295H6.73058H6.73166H6.73274H6.73382H6.73489H6.73597H6.73705H6.73812H6.73919H6.74027H6.74134H6.74241H6.74348H6.74455H6.74562H6.74668H6.74775H6.74882H6.74988H6.75094H6.752H6.75307H6.75413H6.75519H6.75624H6.7573H6.75836H6.75941H6.76047H6.76152H6.76257H6.76362H6.76467H6.76572H6.76677H6.76782H6.76886H6.76991H6.77095H6.77199H6.77303H6.77408H6.77511H6.77615H6.77719H6.77823H6.77926H6.78029H6.78133H6.78236H6.78339H6.78442H6.78545H6.78647H6.7875H6.78852H6.78955H6.79057H6.79159H6.79261H6.79363H6.79465H6.79567H6.79668H6.7977H6.79871H6.79972H6.80073H6.80174H6.80275H6.80376H6.80476H6.80577H6.80677H6.80777H6.80877H6.80977H6.81077H6.81177H6.81277H6.81376H6.81475H6.81575H6.81674H6.81773H6.81872H6.8197H6.82069H6.82167H6.82266H6.82364H6.82462H6.8256H6.82658H6.82755H6.82853H6.8295H6.83047H6.83145H6.83242H6.83338H6.83435H6.83532H6.83628H6.83725H6.83821H6.83917H6.84013H6.84109H6.84204H6.843H6.84395H6.8449H6.84585H6.8468H6.84775H6.8487H6.84964H6.85059H6.85153H6.85247H6.85341H6.85435H6.85528H6.85622H6.85715H6.85808H6.85901H6.85994H6.86087H6.8618H6.86272H6.86365H6.86457H6.86549H6.86641H6.86732H6.86824H6.86915H6.87007H6.87098H6.87189H6.8728H6.8737H6.87461H6.87551H6.87641H6.87731H6.87821H6.87911H6.88H6.8809H6.88179H6.88268H6.88357H6.88446H6.88535H6.88623H6.88711H6.88799H6.88887H6.88975H6.89063H6.8915H6.89238H6.89325H6.89412H6.89499H6.89585H6.89672H6.89758H6.89844H6.8993H6.90016H6.90102H6.90187H6.90273H6.90358H6.90443H6.90528H6.90612H6.90697H6.90781H6.90865H6.90949H6.91033H6.91117H6.912H6.91284H6.91367H6.9145H6.91532H6.91615H6.91697H6.9178H6.91862H6.91943H6.92025H6.92107H6.92188H6.92269H6.9235H6.92431H6.92512H6.92592H6.92672H6.92752H6.92832H6.92912H6.92991H6.93071H6.9315H6.93229H6.93308H6.93386H6.93465H6.93543H6.93621H6.93699H6.93776H6.93854H6.93931H6.94008H6.94085H6.94162H6.94238H6.94315H6.94391H6.94467H6.94543H6.94618H6.94694H6.94769H6.94844H6.94919H6.94925C6.96687 6.85671 6.98686 6.94314 7.00503 7.07032L7.0135 7.12965L7.03576 7.1853C7.13723 7.43898 7.31405 7.86841 7.47872 8.24841C7.56084 8.43793 7.64173 8.61928 7.7096 8.76166C7.74328 8.8323 7.77622 8.89853 7.80609 8.95335C7.8099 8.96033 7.81383 8.96745 7.81786 8.97464L7.8 8.9925V9.15512C7.79752 9.16094 7.79431 9.16796 7.79029 9.176C7.78365 9.18928 7.77628 9.20235 7.76887 9.21421C7.63736 9.30016 7.54322 9.40172 7.47839 9.47952C7.44652 9.51776 7.4157 9.55794 7.39406 9.58617C7.38918 9.59253 7.38477 9.59828 7.38092 9.60326C7.35405 9.63803 7.34639 9.64612 7.34645 9.64606C7.16789 9.82461 6.917 10.2516 7.15279 10.7232L7.16671 10.7511L7.18398 10.777C7.6036 11.4064 8.12497 12.0317 8.64645 12.5532L8.66248 12.5692L8.67991 12.5837C9.32086 13.1178 10.0601 13.5396 10.791 13.854C10.9387 13.9256 11.1392 13.9884 11.3582 13.9571C11.5879 13.9243 11.7799 13.7958 11.9036 13.6005C12.0214 13.4713 12.1631 13.2822 12.2809 13.1251C12.2873 13.1165 12.2937 13.108 12.3 13.0996C12.4619 12.8838 12.5854 12.7213 12.6536 12.6532C12.6581 12.6487 12.6621 12.6449 12.6656 12.6417C12.6689 12.6432 12.6724 12.6448 12.6764 12.6468C12.7825 12.6999 13.1564 12.8743 13.5201 13.0441L13.5386 13.0527C13.9191 13.2303 14.2843 13.4008 14.3764 13.4468L14.3776 13.4474L14.3787 13.448L14.3811 13.4492L14.3823 13.4498L14.3834 13.4503L14.3858 13.4515L14.3869 13.4521L14.3881 13.4527L14.3893 13.4533L14.3905 13.4539L14.3928 13.455L14.394 13.4556L14.3951 13.4562L14.3963 13.4568L14.3975 13.4574L14.3998 13.4585L14.4022 13.4597L14.4045 13.4609L14.4068 13.462L14.408 13.4626L14.4092 13.4632L14.4103 13.4638L14.4115 13.4644L14.4127 13.465L14.4138 13.4655L14.415 13.4661L14.4162 13.4667L14.4185 13.4679L14.4208 13.469L14.4232 13.4702L14.4243 13.4708L14.4255 13.4714L14.4267 13.472L14.4278 13.4725L14.429 13.4731L14.4302 13.4737L14.4313 13.4743L14.4325 13.4749L14.4336 13.4754L14.4348 13.476L14.4371 13.4772L14.4383 13.4778L14.4394 13.4783L14.4406 13.4789L14.4418 13.4795L14.4441 13.4807L14.4452 13.4812L14.4464 13.4818L14.4475 13.4824L14.4487 13.483L14.4498 13.4836L14.451 13.4841L14.4522 13.4847L14.4533 13.4853L14.4556 13.4864L14.4579 13.4876L14.4602 13.4887L14.4614 13.4893L14.4625 13.4899L14.4637 13.4905L14.4648 13.491L14.4671 13.4922L14.4682 13.4927L14.4694 13.4933L14.4705 13.4939L14.4717 13.4945L14.4739 13.4956L14.4762 13.4967L14.4785 13.4979L14.4796 13.4984L14.4808 13.499L14.4819 13.4996L14.483 13.5001L14.4853 13.5013L14.4864 13.5018L14.4876 13.5024L14.4887 13.503L14.4898 13.5035L14.4921 13.5047L14.4943 13.5058L14.4966 13.5069L14.4988 13.508L14.5011 13.5092L14.5033 13.5103L14.5044 13.5108L14.5056 13.5114L14.5067 13.512L14.5078 13.5125L14.51 13.5136L14.5111 13.5142L14.5122 13.5147L14.5144 13.5158L14.5156 13.5164L14.5167 13.517L14.5189 13.5181L14.52 13.5186L14.5211 13.5192L14.5222 13.5197L14.5233 13.5203L14.5244 13.5208L14.5255 13.5214L14.5277 13.5225L14.5287 13.523L14.5298 13.5235L14.532 13.5246L14.5331 13.5252L14.5342 13.5257L14.5353 13.5263L14.5364 13.5268L14.5375 13.5274L14.5385 13.5279L14.5396 13.5284L14.5407 13.529L14.5418 13.5295L14.5428 13.5301L14.545 13.5311L14.5471 13.5322L14.5493 13.5333L14.5514 13.5343L14.5525 13.5349L14.5535 13.5354L14.5557 13.5365ZM1.88216 16.032L1.93669 15.8333L1.83549 15.6539C-0.256898 11.9447 0.316061 7.29066 3.35355 4.25316C7.0567 0.550012 13.0366 0.548426 16.7417 4.2484C18.4616 6.06613 19.4943 8.43771 19.4004 10.8804L19.4 10.89V10.8996C19.4 16.1235 15.2239 20.2996 10 20.2996C8.48462 20.2996 6.96516 19.921 5.53529 19.1584L5.36209 19.0661L5.1723 19.1162L0.712095 20.2944L1.88216 16.032ZM5.52265 18.5156L5.54223 18.5287L5.56295 18.5398C6.92662 19.2741 8.40742 19.6996 10 19.6996C11.7061 19.6996 13.2956 19.1663 14.662 18.3254C18.8077 15.7743 19.964 10.3621 17.4258 6.23756L17.4259 6.23754L17.4227 6.23261C14.8828 2.21103 9.57649 0.820768 5.43017 3.47867C1.30406 6.12361 0.0312217 11.4235 2.57125 15.6569L2.57737 15.6671L2.58397 15.677L2.65868 15.789L1.91688 18.5708L1.69641 19.3976L2.52494 19.1837L5.40857 18.4396L5.52265 18.5156Z" fill="white" stroke="white"/>
</svg>
